<svg width="32" height="32" viewBox="0 0 32 32" fill="none" xmlns="http://www.w3.org/2000/svg">
<g filter="url(#filter0_dd_82_29151)">
<rect width="32" height="32" rx="16" fill="#D53F8C"/>
<path d="M11.88 12.908C11.9333 11.8413 12.3067 11.02 13 10.444C13.704 9.85733 14.6267 9.564 15.768 9.564C16.5467 9.564 17.2133 9.70267 17.768 9.98C18.3227 10.2467 18.7387 10.6147 19.016 11.084C19.304 11.5427 19.448 12.0653 19.448 12.652C19.448 13.324 19.272 13.8947 18.92 14.364C18.5787 14.8227 18.168 15.132 17.688 15.292V15.356C18.3067 15.548 18.7867 15.8893 19.128 16.38C19.48 16.8707 19.656 17.5 19.656 18.268C19.656 18.908 19.5067 19.4787 19.208 19.98C18.92 20.4813 18.488 20.876 17.912 21.164C17.3467 21.4413 16.664 21.58 15.864 21.58C14.6587 21.58 13.6773 21.276 12.92 20.668C12.1627 20.06 11.7627 19.164 11.72 17.98H13.896C13.9173 18.5027 14.0933 18.924 14.424 19.244C14.7653 19.5533 15.2293 19.708 15.816 19.708C16.36 19.708 16.776 19.5587 17.064 19.26C17.3627 18.9507 17.512 18.556 17.512 18.076C17.512 17.436 17.3093 16.9773 16.904 16.7C16.4987 16.4227 15.8693 16.284 15.016 16.284H14.552V14.444H15.016C16.5307 14.444 17.288 13.9373 17.288 12.924C17.288 12.4653 17.1493 12.108 16.872 11.852C16.6053 11.596 16.216 11.468 15.704 11.468C15.2027 11.468 14.8133 11.6067 14.536 11.884C14.2693 12.1507 14.1147 12.492 14.072 12.908H11.88Z" fill="white"/>
</g>
<defs>
<filter id="filter0_dd_82_29151" x="-5" y="-1" width="42" height="42" filterUnits="userSpaceOnUse" color-interpolation-filters="sRGB">
<feFlood flood-opacity="0" result="BackgroundImageFix"/>
<feColorMatrix in="SourceAlpha" type="matrix" values="0 0 0 0 0 0 0 0 0 0 0 0 0 0 0 0 0 0 127 0" result="hardAlpha"/>
<feMorphology radius="1" operator="erode" in="SourceAlpha" result="effect1_dropShadow_82_29151"/>
<feOffset dy="2"/>
<feGaussianBlur stdDeviation="2"/>
<feColorMatrix type="matrix" values="0 0 0 0 0 0 0 0 0 0 0 0 0 0 0 0 0 0 0.06 0"/>
<feBlend mode="normal" in2="BackgroundImageFix" result="effect1_dropShadow_82_29151"/>
<feColorMatrix in="SourceAlpha" type="matrix" values="0 0 0 0 0 0 0 0 0 0 0 0 0 0 0 0 0 0 127 0" result="hardAlpha"/>
<feMorphology radius="1" operator="erode" in="SourceAlpha" result="effect2_dropShadow_82_29151"/>
<feOffset dy="4"/>
<feGaussianBlur stdDeviation="3"/>
<feColorMatrix type="matrix" values="0 0 0 0 0 0 0 0 0 0 0 0 0 0 0 0 0 0 0.1 0"/>
<feBlend mode="normal" in2="effect1_dropShadow_82_29151" result="effect2_dropShadow_82_29151"/>
<feBlend mode="normal" in="SourceGraphic" in2="effect2_dropShadow_82_29151" result="shape"/>
</filter>
</defs>
</svg>
